<?xml version="1.0" encoding="UTF-8"?>
<svg id="Layer_2" data-name="Layer 2" xmlns="http://www.w3.org/2000/svg" xmlns:xlink="http://www.w3.org/1999/xlink" viewBox="0 0 764 764">
  <defs>
    <style>
      .cls-1 {
        fill: #e6e6e6;
      }

      .cls-2 {
        fill: #fff;
        filter: url(#drop-shadow-1);
      }

      .cls-3 {
        fill: none;
        stroke: #000;
        stroke-linecap: round;
        stroke-linejoin: round;
        stroke-width: 30px;
      }
    </style>
    <filter id="drop-shadow-1" filterUnits="userSpaceOnUse">
      <feOffset dx="-10" dy="10"/>
      <feGaussianBlur result="blur" stdDeviation="20"/>
      <feFlood flood-color="#000" flood-opacity=".1"/>
      <feComposite in2="blur" operator="in"/>
      <feComposite in="SourceGraphic"/>
    </filter>
  </defs>
  <g id="Layer_1-2" data-name="Layer 1">
    <path class="cls-2" d="M713.12,221.03v388.8c0,46.12-37.39,83.5-83.5,83.5H240.81c-16.95,0-32.71-5.05-45.88-13.73l-23.89-23.89-62.96-62.96-23.89-23.89c-8.68-13.17-13.73-28.94-13.73-45.89V134.17c0-46.12,37.38-83.5,83.5-83.5h388.8c18.62,0,35.82,6.1,49.71,16.4l17.4,17.4,69.46,69.46,17.38,17.38c10.31,13.89,16.41,31.09,16.41,49.72Z"/>
    <path class="cls-1" d="M208.26,190.49c12.65,12.83,19.73,30.12,19.73,48.14l-1,445.78c0,9.34-11.01,14.32-18.02,8.15l-131.75-131.76c-6.62-5.82-10.46-14.17-10.58-22.98l2.07-431.81c-.31-22.55,27.21-33.76,42.75-17.41l96.81,101.9Z"/>
    <path d="M629.62,708.33h-23.12c-4.18,0-7.57-3.39-7.57-7.57v-14.86c0-4.18,3.39-7.57,7.57-7.57h23.12c6.15,0,12.19-.8,18.03-2.39,3.73-1.02,7.62,1,9,4.61l5.33,13.94c1.59,4.16-.74,8.76-5.02,10-8.85,2.55-18.01,3.85-27.34,3.85Zm-99.45,0h-46.05c-4.18,0-7.57-3.39-7.57-7.57v-14.86c0-4.18,3.39-7.57,7.57-7.57h46.05c4.18,0,7.57,3.39,7.57,7.57v14.86c0,4.18-3.39,7.57-7.57,7.57Zm-122.38,0h-46.05c-4.18,0-7.57-3.39-7.57-7.57v-14.86c0-4.18,3.39-7.57,7.57-7.57h46.05c4.18,0,7.57,3.39,7.57,7.57v14.86c0,4.18-3.39,7.57-7.57,7.57Zm-114.81-7.57c0,4.18-3.39,7.57-7.57,7.57h-44.6c-.78,0-1.56,0-2.33-.03-4.46-.1-7.9-3.95-7.42-8.38l1.59-14.84c.42-3.88,3.72-6.79,7.63-6.76,.18,0,.36,0,.54,0h44.6c4.18,0,7.57,3.39,7.57,7.57v14.86Zm-129.3-31.2l-32.56-32.56c-2.96-2.96-2.96-7.75,0-10.7l10.51-10.51c2.96-2.96,7.75-2.96,10.7,0l32.56,32.56c2.96,2.96,2.96,7.75,0,10.7l-10.51,10.51c-2.96,2.96-7.75,2.96-10.7,0Zm546.6-18.43l-13.27-6.81c-3.45-1.77-5.02-5.87-3.59-9.48,3.12-7.93,4.7-16.32,4.7-25.02v-14.09c0-4.18,3.39-7.57,7.57-7.57h14.86c4.18,0,7.57,3.39,7.57,7.57v14.09c0,12.81-2.53,25.58-7.35,37.38-1.69,4.13-6.52,5.96-10.49,3.92ZM77.15,583.03l-4.09-4.09c-.36-.36-.69-.76-.97-1.19l-.41-.63c-9.09-13.8-14.51-29.53-15.87-45.93-.37-4.42,3.12-8.21,7.55-8.21h14.92c3.86,0,7.14,2.9,7.52,6.75,1,10.25,4.29,20.09,9.66,28.89,.32,.52,.7,.99,1.12,1.42l1.78,1.78c2.96,2.96,2.96,7.75,0,10.7l-10.51,10.51c-2.96,2.96-7.75,2.96-10.7,0Zm643.41-56.05h-14.86c-4.18,0-7.57-3.39-7.57-7.57v-46.05c0-4.18,3.39-7.57,7.57-7.57h14.86c4.18,0,7.57,3.39,7.57,7.57v46.05c0,4.18-3.39,7.57-7.57,7.57ZM77.9,461.79h-14.86c-4.18,0-7.57-3.39-7.57-7.57v-46.05c0-4.18,3.39-7.57,7.57-7.57h14.86c4.18,0,7.57,3.39,7.57,7.57v46.05c0,4.18-3.39,7.57-7.57,7.57Zm642.66-57.19h-14.86c-4.18,0-7.57-3.39-7.57-7.57v-46.05c0-4.18,3.39-7.57,7.57-7.57h14.86c4.18,0,7.57,3.39,7.57,7.57v46.05c0,4.18-3.39,7.57-7.57,7.57ZM77.9,339.41h-14.86c-4.18,0-7.57-3.39-7.57-7.57v-46.05c0-4.18,3.39-7.57,7.57-7.57h14.86c4.18,0,7.57,3.39,7.57,7.57v46.05c0,4.18-3.39,7.57-7.57,7.57Zm0-122.38h-14.86c-4.18,0-7.57-3.39-7.57-7.57v-46.05c0-4.18,3.39-7.57,7.57-7.57h14.86c4.18,0,7.57,3.39,7.57,7.57v46.05c0,4.18-3.39,7.57-7.57,7.57Zm597.15-46.18l-32.56-32.56c-2.96-2.96-2.96-7.75,0-10.7l10.51-10.51c2.96-2.96,7.75-2.96,10.7,0l32.56,32.56c2.96,2.96,2.96,7.75,0,10.7l-10.51,10.51c-2.96,2.96-7.75,2.96-10.7,0ZM86.57,99.68l-13.28-6.81c-3.96-2.03-5.3-7.01-2.94-10.79,9.88-15.86,24.02-28.55,40.83-36.65,4.01-1.93,8.82-.07,10.41,4.09l5.33,13.94c1.38,3.61-.17,7.71-3.63,9.44-10.99,5.5-20.29,13.85-26.95,24.2-2.09,3.25-6.34,4.35-9.78,2.59Zm501.94-15.36l-5.34-5.34c-.32-.32-.66-.61-1.03-.87-7.62-5.36-16.26-9.1-25.33-10.99-3.77-.79-6.28-4.37-5.87-8.19l1.59-14.84c.48-4.43,4.66-7.46,9.03-6.62,14.38,2.79,28.02,8.78,39.85,17.55l.44,.33c.3,.22,.58,.47,.85,.73l7.03,7.03c2.96,2.96,2.96,7.75,0,10.7l-10.51,10.51c-2.96,2.96-7.75,2.96-10.7,0Zm112.73,191.2v-7.55c0-.45-.04-.9-.11-1.35-1.6-9.18-5.06-17.93-10.14-25.68-2.11-3.22-1.36-7.53,1.64-9.94l11.62-9.37c3.47-2.8,8.57-1.99,11.07,1.71,8.19,12.14,13.6,26.02,15.76,40.59l.08,.54c.05,.37,.08,.74,.08,1.11v9.94c0,4.18-3.39,7.57-7.57,7.57h-14.86c-4.18,0-7.57-3.39-7.57-7.57ZM483.02,65.67h-46.05c-4.18,0-7.57-3.39-7.57-7.57v-14.86c0-4.18,3.39-7.57,7.57-7.57h46.05c4.18,0,7.57,3.39,7.57,7.57v14.86c0,4.18-3.39,7.57-7.57,7.57Zm-122.38,0h-46.05c-4.18,0-7.57-3.39-7.57-7.57v-14.86c0-4.18,3.39-7.57,7.57-7.57h46.05c4.18,0,7.57,3.39,7.57,7.57v14.86c0,4.18-3.39,7.57-7.57,7.57Zm-122.38,0h-46.05c-4.18,0-7.57-3.39-7.57-7.57v-14.86c0-4.18,3.39-7.57,7.57-7.57h46.05c4.18,0,7.57,3.39,7.57,7.57v14.86c0,4.18-3.39,7.57-7.57,7.57Z"/>
    <path class="cls-3" d="M457.55,390.12l-108.19,108.7c-12.01,11.93-12.07,31.33-.14,43.33,.05,.05,.1,.1,.14,.15,12.06,12,31.55,12,43.61,0l108.54-108.22m54.32,33.6l37.9-37.9c5.72-5.72,5.72-15,0-20.72l-111.17-111.17c-5.72-5.72-15-5.72-20.72,0l-37.9,37.9c-5.72,5.72-5.72,15,0,20.72l111.17,111.17c5.72,5.72,15,5.72,20.72,0"/>
    <path d="M234.71,644.7h-13.44c-4.57,0-8.28-3.71-8.28-8.28v-43.81c0-4.57,3.71-8.28,8.28-8.28h13.44c4.57,0,8.28,3.71,8.28,8.28v43.81c0,4.57-3.71,8.28-8.28,8.28Zm0-120.74h-13.44c-4.57,0-8.28-3.71-8.28-8.28v-43.81c0-4.57,3.71-8.28,8.28-8.28h13.44c4.57,0,8.28,3.71,8.28,8.28v43.81c0,4.57-3.71,8.28-8.28,8.28Zm0-120.74h-13.44c-4.57,0-8.28-3.71-8.28-8.28v-43.8c0-4.57,3.71-8.28,8.28-8.28h13.44c4.57,0,8.28,3.71,8.28,8.28v43.8c0,4.57-3.71,8.28-8.28,8.28Zm0-120.74h-13.44c-4.57,0-8.28-3.71-8.28-8.28v-35.58c0-1.86-.1-3.73-.29-5.58-.44-4.17,2.18-8.04,6.25-9.04l13.14-3.22c4.78-1.17,9.55,2.05,10.19,6.92,.48,3.62,.72,7.27,.72,10.92v35.58c0,4.57-3.71,8.28-8.28,8.28Zm-59.45-104.11l-30.75-31.2c-3.21-3.26-3.17-8.5,.09-11.71l9.57-9.43c3.26-3.21,8.5-3.17,11.71,.09l30.75,31.2c3.21,3.26,3.17,8.5-.09,11.71l-9.57,9.43c-3.26,3.21-8.5,3.17-11.71-.09Z"/>
    <path d="M657.79,215.19c-9.28-7.47-21.05-11.95-33.74-12.78-.16-.01-.32-.02-.48-.02h0c-3.38,0-6.12-2.74-6.12-6.12v-17.75c0-3.39,2.75-6.13,6.14-6.12h1.29c.13,0,.26,0,.4,.02,19.82,1.14,38.32,8.4,52.81,20.61,2.71,2.28,2.85,6.41,.37,8.93l-12.52,12.71c-2.19,2.22-5.71,2.46-8.14,.51Zm-376.08-.68c9.28-7.47,21.05-11.95,33.74-12.78,.16-.01,.32-.02,.48-.02h0c3.38,0,6.12-2.74,6.12-6.12v-17.75c0-3.39-2.75-6.13-6.14-6.12h-1.29c-.13,0-.26,0-.4,.02-19.82,1.14-38.32,8.4-52.81,20.61-2.71,2.28-2.85,6.41-.37,8.93l12.52,12.71c2.19,2.22,5.71,2.46,8.14,.51Zm282.25-12.12h-48.13c-3.38,0-6.12-2.74-6.12-6.12v-17.77c0-3.38,2.74-6.12,6.12-6.12h48.13c3.38,0,6.12,2.74,6.12,6.12v17.77c0,3.38-2.74,6.12-6.12,6.12Zm-120.74,0h-48.13c-3.38,0-6.12-2.74-6.12-6.12v-17.77c0-3.38,2.74-6.12,6.12-6.12h48.13c3.38,0,6.12,2.74,6.12,6.12v17.77c0,3.38-2.74,6.12-6.12,6.12Z"/>
  </g>
</svg>